<svg xmlns="http://www.w3.org/2000/svg" width="323.914" height="422" viewBox="0 0 323.914 422"><g id="lb-03_1_" data-name="lb-03 (1)" transform="translate(-41.586 -15.5)"><path id="Path_76" data-name="Path 76" d="M300.5,15.5a9.175,9.175,0,0,1,4.5,2A50.727,50.727,0,0,0,313.5,30a14.78,14.78,0,0,0,15.5.5l1.5,1a46.745,46.745,0,0,0-1.5,8,3.942,3.942,0,0,1-2,1q-4.227-3.465-8,0-.5,5-1,10A107.9,107.9,0,0,1,304.5,61a7.937,7.937,0,0,0,4,4.5,40.765,40.765,0,0,1,20,.5,18.162,18.162,0,0,0,5,9A95.541,95.541,0,0,0,349,85.5a76.646,76.646,0,0,1-2,17,25.519,25.519,0,0,0,13,13,6.5,6.5,0,0,1,0,5q-6.354,6.505-1,14a25.028,25.028,0,0,1,6.5,8,90.588,90.588,0,0,0-11.5,16A35.291,35.291,0,0,0,337.5,181a16.477,16.477,0,0,1-12.5.5,12.818,12.818,0,0,0-5.5,2q-10.559,12.3-21.5,24a22.107,22.107,0,0,0-4,12A29.9,29.9,0,0,0,313.5,230q4.045,9.3-5.5,11.5a129.1,129.1,0,0,1-22.5-8,119.055,119.055,0,0,1-12.5,5,8.362,8.362,0,0,1-8-5,107.74,107.74,0,0,1-19.5,10,53.8,53.8,0,0,1-12.5,15,14.654,14.654,0,0,1-7,9,8.633,8.633,0,0,0-.5,8.5,63.253,63.253,0,0,1-6,8.5q.5,1.5,1,3a89.011,89.011,0,0,1,22.5,11q1.629,11.422-9.5,15.5a30.131,30.131,0,0,0-12,3,7.248,7.248,0,0,0-2,2.5q3.856,11.19-6,18.5A89.109,89.109,0,0,0,194,351.5q-4.938,16.846-22.5,17.5l-11,11a35.717,35.717,0,0,1-9,3,5,5,0,0,0,0,6l-1.5,1.5a50.382,50.382,0,0,1-9.5-11,39.76,39.76,0,0,0-7.5,15,151.671,151.671,0,0,1-2,20,134.045,134.045,0,0,0-6.5,14,271.6,271.6,0,0,1-30,9l-3-.5a24.969,24.969,0,0,0-11-11.5,18.342,18.342,0,0,1-14.5,2,14.872,14.872,0,0,1-7.5,3q-30.808.192-5.5-17a13.2,13.2,0,0,0,2.5-8,4.389,4.389,0,0,0,3.5-1A43.139,43.139,0,0,0,65.5,387l-5-7Q74.547,366.393,74,346.5q2.96-4.676,5.5-9.5a2.749,2.749,0,0,1-.5-3.5,83.854,83.854,0,0,0,16-14,276.653,276.653,0,0,1,10-30,4.157,4.157,0,0,0-.5-4.5,22.7,22.7,0,0,0,6.5-14.5l3-2a151.487,151.487,0,0,1,8-22,55.14,55.14,0,0,0,1.5-13,104.079,104.079,0,0,0-1.5-16,75.323,75.323,0,0,0,20,0,30.731,30.731,0,0,0,5.5-9,4.457,4.457,0,0,0-2-1.5,54.32,54.32,0,0,0,6-10.5q2.762-1.095,5.5-2-1.41-4.278-2.5-9,2.963-10.638,5-21.5a32.073,32.073,0,0,1-4.5-22.5,21.274,21.274,0,0,1,4-5,81.5,81.5,0,0,1,3-21,21.741,21.741,0,0,1,6.5-7,14.972,14.972,0,0,1,3.5,3q4.777-8.815,9-18l13-8a15.645,15.645,0,0,1,2.5-4,10.594,10.594,0,0,1-3-8,52.145,52.145,0,0,0,22-4.5A158.66,158.66,0,0,1,231,54.5a55.547,55.547,0,0,0,1-20,14.545,14.545,0,0,0-3.5-8,6.547,6.547,0,0,1,6-.5,22.146,22.146,0,0,0,7,4q13.072.292,26,1.5a8.458,8.458,0,0,1,10-.5,49.248,49.248,0,0,0,14,0,8.837,8.837,0,0,0,3.5-3.5Q293.938,19.469,300.5,15.5Z" fill-rule="evenodd" opacity="0.988"></path></g></svg>