<svg xmlns="http://www.w3.org/2000/svg" width="340.958" height="274.86" viewBox="0 0 340.958 274.86"><g id="nigeria" transform="translate(-0.352 -0.229)"><path id="NG-AB" d="M283.956,491.594l.275.353,2.215-.408,1.243.124.94.615.151.669h0l.032,2-.252,1.311.023.335.431.472,6.461.394.569.853.1,1,.321.477,1.472,1.068.614.1h0l.5.591-.271,1.706.069,1.733.628,2.123.335.77.784.917.349,1.169-.275.555-1.568-.349h0l-1.234-1.2-1.165-.385-1.266-.981-.266-.967-.546-.674-1.559-.417-1.11.064-.128.417.243,1.609-.844,2.339.147.206,1.023-.073-.321,1.119-.335.413-2.788-.073-.5.449-.032.344.491.89-.555,2.664-.014,1.1.3,1.142-.536,1.325-1.155.889.041.353-.215.293.1.674.271.307.009.536-.307.743.821,1.545.06.848h0l-1.082-.821-1.348-.647-.825.2-1.5-.559-1.279.055-.509.293-1.435.266-.825-.124-.665-.646-.271-.5.073-.5.628-1.7L280.251,519l1.1-1.921-.023-1.275-.3-.789-.248-.023h0l1.417-4.7.963-1.775.834-.77.541-1.394.408-.413.2-.922-.165-1.582.128-.94-.692-1.119.564-.353-.174-3.884-.216-.619-.477-.665-2.449-.816-.922-.775h0l.582-1.018.624-.6Z" transform="translate(-150.327 -266.027)"></path><path id="NG-AD" d="M605.889,186.395l-.06.839-.376.807-.468.72-.5.381-.812,1.33-.624,2.242-1.22,1.123-.22.5-.28,1.38.33,1.655.353.486v.78l-.738.761-.119,2.114-.445.766.06,1.582-.358.89-.94,1.178-.119,1.385-.738.477-.66,1.2-2.692.532-1.917,2.7.069.449.706.743.018.293-.527,1.256-.848.637-.014.812.316.734,1.233.61.463.729-.99,1.417-.06,1.032-.248.592.124.509-.5.674.151.358-.1.647.2.289L593,225.008l-.468.752-.445-.06-.779.605-3.673.376-1.261.99-.743.133-1.724,1.554-1.724.908.041.614,1.087.124.225.193.041,3.43-.335.316-.381,2.022.385.949-.532,1.848.138.605-1.288,2.2-1.211,1.055,0,.459.326.454-.376.94.582,1.8-.518.848-.5.174-.766-.105-.669.248-.261.5-.073,1.252-.449.339-.454.848-1,.087-1.559,1.266-.381.055-2.7-.752-.3.3-.11.784-.541.532-.371,1.4-.812,1.073-1.068.064-.514.408-1.133-.128-.848.555-.876.151-.33.376-.312,1.852L565,261.8l.266,2.646-.028.477-.353.257-1.114,2.068.284,1.151.1,1.71-1.894,2.912-1.6,1.417-.807,1.38-.22.917-.514.674-.188,1.582-.509.715.316,2.815.3.825-1.343.679-.9.124-1.261,1.44h0l-.559-.4.023-.715-.89-2.118-.174-1.623-.339-.793.266-2.517-.477-.926L552.4,275.3l-1.981-1.761-1.146-1.444-.7-.514-.651-.2-.752.174-1.3,1.839-1.247.912-1.243-1.123-1.334-2.155-1.156-3.086.376-.724,1.9-2.192,1.742-1.476,2.329-2.513,3.957-5.282L554,253.364l.2-.954-.174-2.65,2.747-5.246.458-1.66-.119-.83-.926-1.761-1.9-.674-1.22-1.348-.156-1.761.211-1-2.412-4.5-.954-.592-2.132-.5-.669-.88-2.5-4.668h0l2.843-.417,1.545-.656,4.31-2.6,2.637-1.834.5-1.068-.238-1.7.312-4.691h0l2.907.445,1.238-.087,2.1-.605.8-.491.78-.871,1.71-2.545L568.743,204l1.151-.4,2.884-.225,2.705-1.018,1.119-1.2.376-1.22,1.522-.064,1.078-.523,1.018-1.7.963-.99,1.151-.674,3.907.362,1.316.472,1.183.711,1.3,1.426,1.114.527,1.091.468,2.013,0,.523-.559.679-3.558,1.243-2.6.559-1.669.4-1.88.128-3.673,1.417-.2.284.339,1.719.523,1.77-.133,2.577-.8h0Z" transform="translate(-292.683 -100.447)"></path><path id="NG-AK" d="M299.8,551.077v0h0l-.009-.009h0Zm3.471-.321.445.229.422-.087.4-.064.151.128-1.642.344-.225-.27Zm18.484-3.467.4.958-.349.376-.491.1-.1-.569.257-.046.16-.413Zm-23.642-5.076-.055-.848-.821-1.541.307-.747-.009-.536-.271-.307-.1-.674.215-.3-.041-.353,1.156-.89.541-1.325-.3-1.142.009-1.105.555-2.664-.491-.89.032-.344.5-.449,2.792.073.335-.413.321-1.119-1.023.073-.147-.206.844-2.339-.243-1.609.133-.417,1.11-.064,1.559.417.546.674.266.967,1.261.981,1.165.385,1.233,1.2h0l-.39.046-.527,1.123.3.821.385.142.358.89,2.187-.257,2.274,1.229.183.963-.28,2.8.747,2.352,1.564,2.251,1.463,1.284,1.729,1.985,1.683,1.288.271.463h0l-.2.99.362.2.014,1.146-.229.206-.188-.307-.032.266.546.536-.275.825-.339.087.046.472-.472.527.11.078L320.3,550.2l-2.4-.289-2.632-.032-4.911.252-5.525.77-.238-.211-.835.165-.426-.22-.4.165-.436-.041-.009.014.229.371.124.2-1.522.605-.449-.779-.536-.3-.394-.087-.44-.486.174-.417-.041-.055-.243.229-.229-.174h0l-.28-.537.018-.293.234-.147-.266-2.086.44-1.958-.289-1.055-.908-1.591Z" transform="translate(-160.712 -282.563)"></path><path id="NG-AN" d="M252.822,444.909l.2.183.041,1.66,1.756-.06,1.119.647.94.037,1.71.78.165.362-.573,1.582-.344.5-.775.523-.848,1.137.11.44-.284.381-.2,1.078.179.248,1.765.532.651.825.614,1.669.6.848-.138.44-.376.133.188.628-.229.743.33.339.867-.518.28.06.271,1.183.61.289-.161.986.862,1.738.083.692.348.449,1.1.642.761-.44.5.041.514.339-.018.248.381.078h0L263.8,467.4l-.624.6-.582,1.018h0l-2.439.651-2.467-.573-2.893.532-.816.477-.426,1.628-1.087,2.114-1.229.124-2.068-.88-.743.367-1.376,1.756-.958.381h0l-1.1-.1-.509-.587h0l.463-.537.88-1.788.156-1.211.812-2.151,1.146-2.086.174-2.756.587-1.674-.564-1.729-.679-3.343.037-.628-.518-.518L246,452.1h0l-.032-.133h0l.766-.353,1.646.3.656-.408.844-1.151.028-1.252.569-1.889,1.027-1.059.706-.394Z" transform="translate(-132.188 -240.778)"></path><path id="NG-BA" d="M427.762,87.519l3.549,2.838.523,1.343.353,3.246-.087.83,1.449,2.137.1,3.091.151,1.238.436,1.243.092,1.775,3.829,9.588-.105,2.256-.481,1.247-.454,3.109.747.7,1.394.17h0l-.367.11-1.243,1.724-2.77,1.5-1.178,1.7-.922.8-.683.348-1.793.4-.66.624-.633.931-.445,2.265-1.2,3.407-1.655,2.325-.092.633L429,140.475l.523.784.4,3.279.4.527,3.3,1.2.954,2.265-.22,3.957.183,1.311-.381.807-1.788.289-.912.422-.6.876.151.743,1.967,2.008,1.146.647,4.2,3.251.564,1.738.28,2.838,1.183,2.421.775.972-.06.436-.266.073h0l-1.83-.014-2.953-.5-4.856,2.224-2.682-.358-2.1,1.215h0l-2.916-1.573-2.834-1.853-5.076-2.173-4.246-2.261-1.178-.234-3.485-1.811-1.389.816-.138.66,1.454,1.862.124.8-.229.766-2.183.6-1.325,2.389-2.013.647-4.6.271-2.508-.679-2.2-.124-.692-.243-.715-.614-.757-1.866-.413-.532-.362-.326-1.8-.651-.275-.39.041-.775,1.091-2.05.105-.536-.119-2.724-.445-1.435-.825-.88-.486-.1-5.03,1,.018-5.677-.358-2.2-1.2-1.908-1.275-.4-1.458-.037-.7.225h0l-1.16-1.243-1.279-.8-.124-.335,1.078-1.926.243-1.816h0l.454-.257,1.188-1.875.61-1.765-.037-.917-.353-.766-1.77-1.985-.206-.912-.183-3.159.206-1.6.734-2.1.468-.2,1.238.073.935-.234,1.256-1.472,1.215-1.885,2.173-1.912.307-.5,1.137-.72.775-.138.523.491.523.041,2.531-1h0l.458-.087,2.751.5,3.407,1.105,1.536-.669,1.055.335.816,1.683,1.435.1,3.531-.22,1.637-.417.523.138,1.224,2.247.248.986-.381,3.6.371.94.619.624,2.614.546,2.568-.637.715.078.853.624,1.128.284.853-.261-.509-1.573.018-.825.7-.876,1.16-.624,1.853-.454.66-.358.848-.637.5-1.247-.477-.669-4.067-.257-2.623-.582-2.93-.353-1.371-.848-2.43-3.4-.481-1.146-.216-1.178-1.761.431-.541-.509-.252-.8,1.151-2.293-.238-1.981-.669-2.027-.83-.229-1.261.124-.972.472-1.2.018-.619-.289.225-1.953,1.476-2.082,2.825-.211L406.9,104.7l5.016-1.71,2.857-1.151.546-.431-.014-1.032-.261-.862,3.077-9.441,2.082-.894,1.6-.252.454.376.381.752.055.637Z" transform="translate(-201.999 -47.264)"></path><path id="NG-BE" d="M303.852,363.66l4.186,1.137,3.9.573L315.934,367l2.256,1.293,2.407.454.491-.064,1.522,1.284,2.444,1.023.523-.5.041-.624-2.155-5.337-.037-1.155.468-1.311.569-.647,1.811-1.009.633-.128,1.188-.083,1.229.2,4.627,1.706,3.146.711,2.238.188,1.816-.1,0-.321,5.406,4.095h0l-1.738,2.737.871.261,2.806-1.206,3.425-.436,3.751.22,3.43.812,2.357,2.247,2.036,2.591,3.838,3.471-.064.3.536.624-.119.477.257.816-.271,1.481-1.091,2.7.133,2.715-.422.656-1.417.89-1.577,1.49-1.518,2.825-.967,5.273.28.335-.151.5-.014,4.017-.871,3.755h0l-.33.138-.972-.335-.358.651.046.917-1.293.8-.821.1-1.275-.2h0l-.3-.711-2.238-3.04-2.536-2.627-.683-.33-1.417-.1L343.5,402.5l-2.008-.2-.555-.408.3-2.187-.257-.752-3.962-2.467-2.49-.775-.968-.032-1.059.271-.967.307-.7.55.353,2.063-1.44.88-1.435.381-1.761-.064-.945-.307-.88.206-.624.8-1.082.9-1.371.225h0l-.78-1.041-.385-1.953-.807-.6-.468,1.059-1.564.17-.812,1.321-.88.426-1.353-.115-1.582.183-.573,3.774-.454.94-.647.271-.816-.339-1.839-1.687-.3-.706.078-.417h0l1.045-2.944-.413-2.577-.651-.981-.7-.527-1.288-.16-1.013.967-.963.335-1.339-.7-1.642-1.266-1.325-1.536-1.256-2.985.06-.243h0l.188-.229.385.266,1.545,1.509.376-.046.619.481h.807l.156-2.027.44-.66,2.953-1.431L307.974,387l.89-2.673.193-1.8.216-.592.564-.555.165-.83-.679-.216-1.518.147-.582-.481-.569-2.536-.261-3.123,0-3.164-.335-.848-1.238-1.2-.862-1.477-.248-2.692Z" transform="translate(-161.67 -194.905)"></path><path id="NG-BO" d="M604.171,11.079l.321,2.591-.381,1.376,1.6,2.87-.092,1.156-.211.225.128-1-.477.61-.1.88,1.091,1.169,1.128.28-.3.307.128.248.358.087,2.045,3.453,1.3,1.412.482.1.789.44.747.55,1.775.344.119.394-.266,0-.257.5-.092-.477-.3.266-.339-.018.66.734.124.807,1.779-.532,1.059-1.2,1.133-.926.734-.307-.5.807.069.206.3-.087.261,1.073-.151.1-.307-.633-.39.22-.261.564-.926.261.307.862-.546.518-.853,1.71.188.353.628-.206-.032,1.119-.266.527.39.018-.156.624-.527.706.183.261.72-.2.133.252-1.206.637.9.229-.069.408.55.023-.344.39-.605.151.055.193.569-.105.055.275-.22.2-.105-.17-.463.105.11.344.339-.055-.39.766.692.1.1.614-.261.339.119.573.445.1.243.555-.11.527.894.252.156.669.28.238.738-.436.211.092.326.876.559.326.142.5.99.353-.014.5.307.459-.169.546.326.293.509.252.646-.229.917.119-.124.477L624.6,48l.179-.316.83-.032.674-.371,1.128-.037.078.559.491.041-.055.417-.573.147.1.243-.174.293.436.128,1.032,1.2,1.568-.243.472-.023.2.371.789-.4,1.344.4,1.6-.16.312.142.39.055.738.156.362.55.582.156.156.4-.307.009.037.514,1,.463.321.628-.33.637,1.371.353.348.688-.248.211.518.248.358.055.055-.225.445-.037.234-.234.61,1.151-.628.592-.147.825-.339.4.312.917-.789.532-.027.72,1.009,1.733-.555.8.106.619-1.064,1.27,0,.688.133,1.738-.321.564-1.288.986-.028.252.578.789.922.518.99,1,.2.99-.284,2.146-.578.426-2.916,1.178-1.779.413-.78,1.417-3.71,1.454-1.5.949-.885,1.215-2.045.89-1.064.018-1.247-1.087-1.156-.2L622.3,80.5l-.491.073-.28.348-.266,1.064-.954,1.082-.358,1.229-.33.481-.669.44.11.683-.3.1-.5.77-1.064.935-.555,1.334-1.486.738-1.11.248-.353.344-.087.8h0l-2.577.8-1.77.133-1.719-.523-.284-.339-1.417.2-.128,3.673-.4,1.88-.559,1.669-1.243,2.6-.679,3.558-.523.559-2.013,0-1.091-.468-1.114-.527-1.3-1.426-1.183-.711-1.316-.472-3.907-.362-1.151.674-.963.99-1.018,1.7-1.078.523-1.522.064-.376,1.22-1.119,1.2-2.705,1.018-2.884.225-1.151.4-2.843,3.237-1.71,2.545-.779.871-.8.491-2.1.605-1.238.087-2.907-.445h0l-1.793-1.009-.83-.734-1.435-2.829-2.6-1.073-.839-.835-1.114-1.609-.371-1.3,2.375-3.467.284-1.385-.619-1.513h0l1.394-.316,1.564-2.077-.128-3.847.28-1.27.789-1.3,1.22-.88,5.14-1.385,2.8-1.674.958-1.412.11-1.348-.349-1.9-.018-1.362.413-1.311,1.325-1.536,1.513-2.705,2.082-2.031.454-.968-.385-1.527-1.435-1.72-2.251.1-.294-.165-.069-.89,2.164-4.191-.775-3.411.06-1.6,1.165-7.47.023-2.655-.789-1.756.252-1.009,3.237-2.893,1.087-1.412.844-1.93-.22-1.715-2.2-1.761-.665-.835-.564-1.765.683-3.677.037-1.93h0l.665-.055,2.008.4.014-.546.271-.188.032-.339.087-.784.679-.61.523.11.619-.335-.156-.532.335-.5L581.533,26l-.408-.087.183-.518.353-.61.367-.816.293-.275,1.045.16.633-.4.44.041.28.339.44-.509.105-.66.614-.105.674-.133.133-.211-.156-.183.449-.536.967-.22.284-.569.628-.358.073-.362.266-.339.183-.339-.009-.394.5-.2.2-.468-.371-.142.261-.28.564.289-.133-.72.5.055.028.216.39.133.5-.064.858-.766.468-.17.147.174.908-.046.637-.61.468.225.023-.5.5-.165.468.041-.408.536.674.362.422-.6.619.477-.092-.6.679-.234-.142.954.422.055.206-.445.527-.115.422.637.44-1.16.761-.385.009-.2-.252-.087.087-.326.546.092.293-.367-.293-.078-.183-.468.77-.734-.027-.266.683-.307-.023-.426.482-.486.569-.11.179-.486Z" transform="translate(-300.361 -5.875)"></path><path id="NG-BY" d="M206.15,552.847l-.1-.284-.312.046-1.816-1.192-.55-2.008-.633-.857-.913-.009-3,1.165-.477-.119-.16-.89.193-.669-1.518-.66-.229-.381.032-1.99.871-1.224.348-.94.014-.582-.591.073-.385-.358.61-2.036,2.059-3.595,1.27.078.252-.229.344-1.142.706-.362-.105-.83.725-.491.436-.679-.014-.889-.289-.706-.348-.266-.88-.38-1.348.224-.477-.128.353,1.133-.55.39-2.329,1-1.6-.2-1.256.225-.922,1.88-.967.238-.362-.275-.674-.037-.165.436.119,1.059-1.3.715-.743.257-1.38-.11-.564.912-1.059.284-.867-.307-.454-.761-.968-.587-.344.229-.679,1.408-1.513.752-1.2-.193-3.43,1.88-.431-.17-1.064.183-.459-.5-1.233-.734-1.4-.326-1.33-.761-.963-.963-.257.33-.33-.261-.656.243-.165-.229-.747.385,1.082,2.114.876,2.664-.156.362.436.7.16.853,1.862,3.1.087.66.431.252,0,.078.023.5,3.439,4.76.546.284-.009.344,1.27.619-.124.188.481.344.055.3,1.174.729.087-.179.142.156-.1.11.009.156,1.2.99.22-.009-.064-.353-.206-.1.724-.211-.348.321.151.33-.119.124.032.234,1.064.779,2.325,1.082.087-.917-.362-.234-.252-.573.156.055.133.408.362.1-.055-.321.188.014-.009.321.238.078.119.353-.284.541.119.2-.156.6.183.133,2.375.605.087-1.022.3-.266.174,1.761,3.824-.321-.293-1.1.472-1.4.3-.5-.133-.628-.876-.527.22-.023.546.124.44.724.275-.518-.252-.362.041-.981-.385-.619.142-.339.078.472.316.252.014.174.339.926-.046,1.421,1.247-1.133-.266-.289.046-.89.876-.275.229-.289.316.738.055.592-.22.472.275.605.023.738.614.119.5.692.22-.023-.087.151.1.2,1-.22.087.156-.284.3.7.362,3.879-.417.009-.22-.183-.234-.032-.353-.046-.156.307-.394.275-.266-.238.935.1.179.931.807.44-.449,1.619-.174-.229-1.133-.041-.174-.174-.518-.527-.344-.087-.454.009-.087.133-.486-.243-1.032-.188-.252.161-.165.349.413.573,1.926.174-.266-.3-2.4.78-1.554.119-.839Zm-35.9-8.9h0l0,0Zm27.287,17.186-3.769.454-1.284-.046-.1-.321.624-1.155.069-.009.206.018.064-.6.908-1,.055-.142.2-.408.206-.087-.271-.353-.083-.6.252-.16.472-.087.413.614-.229.61.358.743-.1.72.747.2.3.422Z" transform="translate(-90.766 -287.09)"></path><path id="NG-CR" d="M334.16,443.792l1.371-.225,1.082-.9.624-.8.88-.206.945.307,1.761.064,1.435-.381,1.44-.88-.353-2.063.7-.55.968-.307,1.059-.271.967.032,2.49.775,3.962,2.467.257.752-.3,2.187.555.408,2.008.2,4.388-1.027,1.417.1.683.33,2.536,2.627,2.238,3.04.3.711h0l-1,3.824-2.361-1.013-.358.844-.009.908-.266.335-.5.431-1.284,2.228-1.481.431-.747.546-.55.541-.436,1.146-.454.445-4,3.563-1.747,1.252-.514.151-.752,1.055-.775.4-.6.679.183.394.624.477-.481.679.183.38-.206.44-.674.857-.261-.266.023.688,2.339,2.586.142.807-1.1,1.857-.294,1.1-.514.623.1,1.784-.83,2.7.069,3.008-1.165,1.926-.867.353-.037.385-.614.477-.559,1.513-.573.477.445.468-.413.16-.449.569.023.261-.463.174.041.807-.9.344-.468.573-.009.44.55.523.156.7-1.11.669-.5-.11-.312-.33-.472.376-.293.7-.344.243-.073.674.307.032.275-.8.119,1.151-.165.257-.2-.307-.275.064.266.66-.679.124.027.348-.816.133-.674-.275.234-.812.491-.055-.582-.738-.367.559-.532.22-.949-.211-.3-.527.353-.321.1-.073-.142-.417-.624.188-.518-.289-1.091,1h0l-.271-.463-1.683-1.288-1.733-1.99-1.458-1.284-1.564-2.251-.747-2.352.28-2.8-.179-.963-2.274-1.229-2.187.257-.362-.889-.381-.142-.3-.821.527-1.123.39-.046h0l1.568.349.275-.555-.348-1.169-.784-.917-.335-.77-.628-2.123-.069-1.733.271-1.706-.5-.592h0l.174-1.1,1.073-1.426-.165-1.22.669-.578.156-.619.908-1.05.037-1.11-.523-.825.087-.449,1.041-.5,1.2-.083,1.233,2.063.614-.954.99-.353,1.009-.784.128-.6.862-.133,1,.578.385-.417.312-1.055.046-1.188.367-.674,3.173-3.847.009-.642-.853-1.192,0-.734.757-.747,1-.17.381-.779-.11-.481-.633-.459-.188-.688-.238-.17.046-.89-.587-.514-.229-.784-1.238-.857-.913-1.2Z" transform="translate(-174.178 -236.809)"></path><path id="NG-DE" d="M194.217,469.476l-.679-3.343.037-.628-.518-.518-.977-4.388-.862.935-1.88-.174-1.71.371-3.755,2.348L180.5,465.5l-1.848,2.077-.293.023-1.183-1.807-.463-.193-.766-.142-.816.724-.408.931-.069,1.087.183.344.669.371.248,2.21.931,1.646.9,1.11.862.669,1.023.371.133.8-.321,1.486-.711.876-.747.761-1.412.931-1.05,1.408-1.275.912-.83.275-2.4.477-.977-.257.321-.825-.734-.738.935-1.848-.216-.381-1.793-1.078-.917-1.3-2.141-1.2-1.454-.573-.752-.614-2.348.848-.848,1.091-.812-.183-1.041-.908-.633-.133-1.454.307-1.366-.33-.454.142-.289.138-.028.472.408.72-.238.486-1.88,1.477-.761.032-.023-1.133-.3-1.169.321-1.344-.069-.656-.761-.766-2.49-1.284-3.164,7.676,1.137,2.054.637.4.266-.734.6-.573,3.558-1.935.578-.1.848-.587.518-.248.165.234-.009.078-.917.436-.463.734-.032.119-.381-.243-1.032.449-1.458,1.151-.156.344-.908-.206-.481.376-.362,1.44.119.706,1.206,2.063,1.458,1.44.514-.243,1.38-.615,1.362.188.339-1.449.527-.986-.009-.174.183-.138v0l.174.055-.105.064-.11.871-.514,1.041.459.977.876.289.747-.124.724-1.458.734.046.087-.115v0l1.371.706.514.307.087.22-.546-.156.124.353.046.605-.61-.161.445-.307-.151-.615-.514-.33-1.435-.133-.275.064.041.747-.252.518-1.073.9.459-.724-.821.069-.963-.252-2.036-.307-.9.087-.055.385-.743.5-.578.766,1.27,1.816,1.394,1.2,2.77,1.206,2.334.133.009-.3-.546-.637-.436-1.33-.119-.206.032-.339.216-.055-.087.376.459,1.009.381-.275h.165l-.032.1-.436.5.119.229,1.215.514.261-.1.757-2.2.385-.67.44-.284-.293-.151,1.467.055.22.069.481-.211.211-.518.339-.174.514.078.436.417.28-.3.041.105-.055.344-.408.018-.633-.431-.463.77-.724.362-.83-.055.1.394-.44-.449-.605.165-.252,1.385.124.605.266.5.206.33,1.541.5-.138.367-.711-.514-.3.165-.014.321-.032.1-.225.06.147-.674-.142-.055-.2-.156-.206-.211-.206.22-.339.229-.165.243-.362.055-.514.261.417.211.94-.046-1.362.44-.183.289-.459-.738-.275.023-.128-.009-1.16.069-.536.289-.032-.179-.316-.032-.188-.142-.307.1-.381-.2.023,1.119.876,3.5-.11.761.954,1.036.94-.4,1.215-.078-.408-.619-.041-.514.069-.11.229-1.091.133-.014-.069.275.069.188-.238,1.234.4.252-.046.7-.367.142.963.963,1.33.761,1.4.326,1.233.734.459.5,1.064-.183.431.17,3.43-1.88,1.2.192,1.513-.752.679-1.408.344-.229.968.587.454.761.867.307,1.059-.284.564-.912,1.38.11.743-.257,1.3-.715-.119-1.059.165-.436.674.037.362.275.967-.238.922-1.88,1.256-.225,1.6.2,2.329-1,.55-.39-.353-1.133-.261-.477.1-.2,1.614-.83.087-2.43.321-.679.94-.651.408-.8.376-1.458-.5-1.623.105-.16.463-.536.88-1.788.156-1.206.807-2.151L194,475.62l.174-2.756.582-1.674Z" transform="translate(-78.269 -249.274)"></path><path id="NG-EB" d="M309.622,448.178l-.078.417.3.706,1.839,1.687.816.339.647-.271.454-.94.573-3.774,1.582-.183,1.353.115.88-.426.812-1.321,1.564-.17.468-1.059.807.6.385,1.953.78,1.041h0l.225,1.325.913,1.2,1.238.857.229.784.587.514-.046.89.238.17.188.688.633.459.11.481-.381.78-1,.17-.757.747,0,.734.853,1.192-.009.642-3.173,3.847-.367.674-.046,1.188-.312,1.055-.385.417-1-.578-.862.133-.128.6-1.009.784-.99.353-.614.954-1.233-2.063-1.2.083-1.041.5-.087.449.523.825-.037,1.11-.908,1.05-.156.619-.669.578.165,1.22-1.073,1.426-.174,1.1h0l-.614-.1-1.472-1.068-.321-.477-.1-1-.569-.853-6.461-.394-.431-.472-.023-.335.252-1.311-.032-2h0l1.664-.463.913.78.353.041.967,1.151.335.032.3-.66-.367-1.339-.069-1.211,1.224-1.252.367-.793-.454-3.045-.284-1.169-.5-.491.009-.564,1.256-2.8,0-2.669-.3-.527-.174-1.509-.679-2.247,2.958.252Z" transform="translate(-162.818 -239.907)"></path><path id="NG-ED" d="M173.146,395.489l.353.294.8-.17.321.165.128.312-.174.408.211.3,1-.115.124.367-.44.848-.105.885.128.481.5.358.977.243,2.724-1.344.715.963.3-.032.578.647.252-.027.9,1.023,1.036-.087.339-.234,1.174.069.486.922.032.56.39.28.22.8.339.257-.11.234.3.747,1.719-.385.2.174.669-.454.857-.188.8.647.252.972.665.5.362.922.069,1.564-.142.88-.743,1.807.027,1.908-.876,2.21-.99,1.628.587.986-.426,2.531.408,1.192.647.922.472,2.765h0l.032.133h0l-.862.931-1.875-.174-1.71.371-3.755,2.343-3.37,1.421-1.848,2.077-.3.018-1.183-1.807-.463-.188-.761-.147-.821.729-.408.926-.069,1.087.183.344.669.371.248,2.21.931,1.642.9,1.11.862.669,1.023.371.128.8-.316,1.486-.711.876-.743.761-1.412.931-1.055,1.408-1.27.913-.83.275-2.4.477-.977-.261.321-.825-.734-.738.931-1.848-.215-.381-1.788-1.078-.917-1.3-2.146-1.2-1.449-.573-.752-.614-2.348.848-.848,1.091-.812-.183-1.041-.908-.633-.133-1.454.307-1.362-.33-.454.142-.293.138-.028.472.408.72-.238.486-1.875,1.481-.761.032-.023-1.133-.3-1.169.326-1.343-.069-.656-.761-.766-2.49-1.279h0l.179-.532-.564-1.036-.61-.477-.715-.041-.757-1.348-.89-.624-.321-.027-.2-.417.115-.271-.128.2.367-.321.44-1.665.266-.28,1.353-.4.385-1.715.8-.784.385-.9.16-.789-.261-.665-.642-1.045-.564-.293v-1.3l.371-.449-.046-1.018.225-.44.8-.743.206-.472.793-.367.362-1.041.44-.316.041-.894.206-.358,1.009-.463.977.183,1.045-.174.77.165,3.045.051,1.509-.174.752.156.8.954-.922,1.036.963,2.5.339-.014,1.729-1.449.614.055.546.679.371.161,1.229-.468.692-1.554.436-2.274.115-.115.546.234,0-.747.4-.238-.069-.371-.541-.587.28-2.128.569-.761.7-.335.17-.39-.147-.385,1.481-3.159-.069-.637.216-.477.807-.839.986-.481.656-1.623-.2-.128-.353-1.137.4-1.325-.922-.376-.183-.385.083-.637.647-.789.715.064.408-.275Z" transform="translate(-77.419 -214.019)"></path><path id="NG-EK" d="M143.4,365.8l.188-.078.28.766.472.225,2.054-.573.436.17.674.945.436.225,1.068-.105,1.055.284.894-.266.592.252.477-.99-.133-.289.376-1.018,1.885-.614,2.641-.041h0l-.5.193-.014,1.963.252.206,1.137-.651,1.683-.293,1.059.124.257.321-.128.628-.614.294-1.05,1.38-.037.715.605,1.719.605.44.587.014.848.775,3.127,1.1h0l-.7,1.1-.376.138-.688-.573-.853.179-.39.945-1,.665-1.1,1.137-.518.981-.784,3.714-.78,1.8-1.4,2.031-2.536,1.6-1.041-.271-.5-1.229.073-.394-.477-1.463-.651-1.018-.711-.238-3.2.142-3.567-.2-2.086.665h0l-.381-.78-.385-1.738-1.307-2.8-.316-2.192.546-1.83-.371-1.288.055-.642.871-1.949.743-.688,1-.431.912-.752Z" transform="translate(-75.047 -197.342)"></path><path id="NG-EN" d="M262.672,433.619l1.252-2.3.417.115.083,1.045.339.023.61.922.316.156.569-.151,2.279-2.472,2.742-1.77,2.834-3.4,1.119-.417.981-.963,1.518-.348,1.119.344.509.743h0l-.06.243,1.256,2.985,1.325,1.536,1.642,1.266,1.339.7.963-.335,1.013-.967,1.289.16.7.527.651.981.413,2.577-1.045,2.944h0l-.821.165-2.958-.252.679,2.247.174,1.509.3.527,0,2.669-1.256,2.8-.009.564.5.491.284,1.169.454,3.045-.367.793-1.224,1.252.069,1.211.367,1.339-.3.66-.335-.032-.967-1.151-.353-.041-.912-.78-1.664.463h0l-.151-.669-.94-.614L278.156,455l-2.215.408-.275-.353h0l-.381-.078.018-.248-.514-.339-.5-.041-.761.44-1.1-.642-.349-.449-.083-.692-.862-1.738.161-.986-.61-.289-.27-1.183-.28-.06-.867.518-.33-.339.229-.743-.188-.628.376-.133.138-.44-.6-.848-.614-1.669-.651-.825-1.765-.532-.179-.248.2-1.078.284-.38-.11-.44.848-1.137.775-.523.344-.5.573-1.582-.165-.362-1.71-.78-.94-.037-1.119-.646-1.756.06-.041-1.66Z" transform="translate(-142.037 -229.489)"></path><path id="NG-FC" d="M268.818,286.192l2.806-.289,1.467.147.7.39.518-.39.83-1.394.486-.248.491.2.674,1.426.431.142.541-.362h0l-.032,1.119-.193.284-.472.032-.243.28-.968,2.99-.037,2.577.234,1-.252,3.21-.908,2.416-.7,3.645-.362.165-.5,1.559-.477.752-1.733,2.118-3.191,1.669-2.123.486-1.334.55-5.1.8h0l-.642.211-3.421-.069h0l-.839.1-.651-.216-.894-2.251.211-.628-.344-13.852.165-6.264.156-.174,1.229-.151,5.058-.215.807.289,4.214,3.714.431-.11Z" transform="translate(-136.687 -153.873)"></path><path id="NG-GO" d="M500.9,162.145l.417-.4,1.912-.692,1.852.078,1.367.463,1,.592,3.893,2.87,2.178,2.935,1.568,1.642-.459.706.725-.468,1.687,1.55.307,2.233-.55,5.434.353,2.958.137.234,3.109,0h0l.619,1.513-.284,1.385-2.375,3.467.372,1.3,1.114,1.609.839.835,2.6,1.073,1.435,2.829.83.734,1.793,1.009h0l-.312,4.691.239,1.7-.5,1.068-2.637,1.834-4.31,2.6-1.545.656-2.843.417h0l-2.921.216-5.713-.009-2.705.275-1.637-.326h0l.266-.073.06-.436-.775-.972-1.183-2.421-.28-2.838-.564-1.738-4.2-3.251-1.146-.647-1.967-2.008-.151-.743.6-.876.912-.422,1.788-.289.381-.807-.183-1.311.22-3.957-.954-2.265-3.3-1.2-.4-.527-.4-3.279-.523-.784-3.384-1.371.092-.633,1.655-2.325,1.2-3.407.445-2.265.633-.931.66-.624,1.793-.4.683-.348.922-.8,1.178-1.7,2.769-1.5,1.243-1.724Z" transform="translate(-263.644 -87.078)"></path><path id="NG-IM" d="M263.005,497.489l.922.775,2.449.816.477.665.216.619.174,3.884-.564.353.692,1.119-.128.94.165,1.582-.2.922-.408.413-.541,1.394-.835.77-.963,1.774-1.417,4.7h0l-1.178.436-2.073-.518-.977.018-1.9.486-2.151-.509-3.081.064L250.7,518l-.99-.757-.789-1.559-.844-.6-.119-.628.5-1.266.238-2.123-.206-.761-.972-.353-1.587.307-.692-.2,1.261-6h0l.958-.381,1.376-1.756.743-.367,2.068.88,1.229-.124,1.087-2.114.426-1.628.816-.477,2.893-.532,2.467.573Z" transform="translate(-132.599 -269.249)"></path><path id="NG-JI" d="M381.731,61.651l.821.541,2.751.335,1.44-.825.963-1.83,2.439-1.188,1.449-.289,1.293-.628,2.9-.9,1.013.573.977,2.192.316,1.995.669,1.16.514-.33,2.687-.853,2.288,1.018.931-.28.848.4,1.013,1.559.807,5.287.4,1.33h0L403.181,74.1l-.055-.637-.381-.752-.454-.376-1.6.252-2.082.894-3.077,9.441.261.862.014,1.032-.546.431L392.41,86.4l-5.016,1.71L384.886,89.5l-2.825.211L380.585,91.8l-.225,1.953.619.289,1.2-.018.972-.472,1.261-.124.83.229.669,2.027.238,1.981L385,99.953l.252.8.541.509,1.761-.431.215,1.178.481,1.146,2.43,3.4,1.371.848,2.93.353,2.623.582,4.067.257.477.669-.5,1.247-.848.637-.66.358-1.853.454-1.16.624-.7.876-.018.825.509,1.573-.853.261-1.128-.284-.853-.624-.715-.078-2.568.637-2.614-.546-.619-.624-.371-.94.381-3.6-.248-.986-1.224-2.247-.523-.138-1.637.417-3.531.22-1.435-.1-.816-1.683-1.055-.335-1.536.669-3.407-1.105-2.751-.5-.459.087h0l-.037-1.027.5-1.706,3.265-3.155-.408-.527-.958-.243-1.3-1.211-.679-1.261-.229-.917-.5-.454-2.32.069-.092-.9.229-.958,1.541-2.151.087-.94.486-.844-.087-1.128L367.4,83.721l-.573.243-.674.8-1.064.651-.835.083-.628-.115,0-1.178-.261-.66-1.44.115-.871.546v-.472l-.757-.33.243-.789.541-.637.037-2.572-.367-1.348-.422-.371-.848-.257-2.494-.257-.381-.193-.468-.637.261-.922-.5-1.412-1.747-.972-.518-.633-.206-2.715-3.567-.926-1.729.16-1.83.885-.793.619-.284,1.192-.857,1.655-.491-.514-.046-.9-1.609-2.88h0l-.569-1.2-.381-.321L339,67.406l-1.311-.426-.271-.33-.032-1.765.344-1.559-.009-1.233.211-.138,4.764-.633,2.462.454,4.228-.358.537.564.647,2.146.312.431,1.22.766.912.238,1.2-.692.293.715.683.321,1.687-.252,1.917-.8,1.463-1.183.472-1.206.266-.344.917-.4,0-.394h0l.582-.179,4.613.2,4.136.651,2.4-.344,2.779.358,4.6.206Z" transform="translate(-182.49 -30.669)"></path><path id="NG-KD" d="M260.142,154.764l1.417.009,1.119-.307,1.917-1.756,2.2-1.3h.757l1.871-.569.559.087.518.376.147.573-.967,1.843.243,1.178.477.541,1.619.839,1.72.564,1.609,1.894.7.252,1.275-.014,1.123.271,2.467,2.031,1.646,2.944.174,1.779-.463,1.119-.463,2.251.55,2.774-.092.793-.33.5-1.628.44-.252.362.275.954.486.491,3.219.445.908,1.261.734.481,1.376.293.482-.133h0l-.243,1.816-1.078,1.926.124.335,1.279.8,1.16,1.243h0l-.17.133-.1,1.33-.252.656-.605.715-1,.335-.871.642-.977,2.279-.1,1.243.624,1.293.344,1.614-1.1.9-.156.5.083.9-.321,3.581.243.963-.193.491-.876.711-.183,1.412-.807.587.1,2.173-.481.642.046.532,1.495,2.421,1.178,1.412.784.555.459.958.055,1.564-.766,1.807h0l-.5.261-1.215,2.572L282,221.825l-.376.33-.738.193-1.133-.06-.275-.871-2.449-2.71-1.747-.11-.688-.573-.61-.1-.592.449-.408.871-1.907,2.178-1.078.734-.527.1-.614-.44-.183-.6.023-4.448-.472-.738-1.935-1.119-.147-1.49-1.344-1.224-.5-.179-.463.16-.757.972-.431,1.165-1.059.963h-.5l-.8-.486-.614.115-1.119-.821-.426-.064-.688.28-.321-.362-.275-.862-.344-.05-.614.468h0l-.541.362-.431-.142-.674-1.426-.491-.2-.486.248-.83,1.394-.518.39-.7-.39-1.467-.147-2.806.289h0l-.564-.193-1.128.275.633-1.894-1.554-1.275.041-1.064.257-.426,1.123-.592.362-.4.275-1.279,1.417-1.454-.266-.862-1.376-.743.381-1.385-1.66-.624-.518-.353-.078-.417.133-.293.4-.193,1.481-.188.289-.692-.046-1.417-.422-1.779-.073-2.32-.151-.463-.628-.307-5.9.037-3.058-1.142-.784-.761-.472-.908.417-.569,1-.624.743-.77.39-.679,1.944-1.192L240,186.1l.142-.908-1.481-.8-2.215-.761.619-1.9.023-1.178-.908-1.742-.738-.2-1.032.307-.637-.064-.128-2.063-.22-.88-.28-.234-2.169-.229-.541.55.307,1.1-.293.449-1.82-.257-3.5,1.311-.477-1.22-.468-.459-1.334.06-.963.28-1.128.688-2.563,2.063-2.467,3.214-.647.408-.656-.275-.559-1.614-1.4-.917-.1-.628.151-1.059.844-.825-.11-1.747.339-.917-.064-.679-.66-1.091.183-2.2,1.394-2.467h0l.77-.055.587-.348,1.311-1.908,2.416-2.16,2.586-.436,3.641.261,2.16-.284,1.068-.692,1.394-1.421.692-1.481.293-1.628.784-1.564.39-.523,1.261-.812,1.073-1.091.463.014h0l2.022.4.89-.083.624.413.362.8-.105.491-1.325,1.233-.179.605,2.912.885,1.949,1.967.8.105,1.233-.7.633-.876-.83-1.541-.055-.935,1.582-.5.894.05,1.27.5.642-.041.266-.248,0-.637.55-1.362,1.4-1.188.637-.128,3.109,1.05.94.793.445.724.72.358,2.577-1.027.385-.94Z" transform="translate(-114.801 -81.55)"></path><path id="NG-KE" d="M69.552,42.188l3.035-.064.853.339,2.123-.724.348.142.757.972,1.463.835.486.5L83,45.623l1.353.949,1.4.312.835-.2.289-.257,1.142-1.692.532-.142.5.4.183.573-.743,1.8.041,1.1-.651,1.366-.193,1.7.853.986.825,1.963-.083,1.522-.6,2.779.018.935.77,2.531-.11,3.677-.293.715-.468.018-1.454-.935-1.229.009-1.811.541-.587.679-.463,1.733L83,73.249l.362,5.984-.972,4.489-1.2,2.582-.532,2.187,1.169,1.674.348.234,1.275.133.784-.619,1.1-1.376,5.5-2.5.775-.055.867.394.935-.33.353.8.431.032.743-.445h0l.394-.22h.835l1.885,1.032,2.907-.669.376-1.064.486-.284.362-.069.417.293.958.142,1.655-.3.5.261.775,1.513,1.316.05,1.674,1.105,2.508-.348,1.738.229,1.142-.271.559-.371,2.224.284,1.995.812.647.986,0,1.133-.94,2.976v.55l2.467,1.243.885,1.38.633,3.476.1,2.513h0l-.624-.5-.848-.165-1.568,1.266-.587,1.009-1.8.188-5.548,2.329-4.893.316-.752-.573-.165-1.843.17-2.206-.22-.816-1.72-1.133-.371-.578-.449-2.985-.775-.734-1.3-.326-1.669-.018-4.521.729-3.609.839-2.031.743-2.224,1.188-.628.949.073.706.4.578,1.664.922,2.476,1,2.458.243.481.922.784-.014.358.339L96.5,108.2l-.115.491-1,.665-.289.674.225.665,1.256.747.536.624-.032.949-.463.683-1.742.445-2.394,1.211-2.293-.238-.711.193-.413.344-.018,4.4-.206.628.573,1.3.83.9.853,1.389.344,1.119-.128.7-.812.977-1.211.72-1.55.119-3.4,1.146-.229,2.682-.257.22-1.981-.211-.651-.454-.009-1.045.472-1.5.133-1.807-1.344-1.22-.514-1.105.083-2.9.669-1.495.844-.917.679-.463,1.8-.66,2.118-2.031,1.114-4.911.092-1.857-.234-.339-1.325-.486-.724.046-3.852-2.614-2.4-.775-1.348.032-2.063.39-2.838-.165-5.58.371-.853-.133-1.6-.651-5.062-2.788-1.325-.165-.408.238h0l-.592,0L51.582,97.62l1.985-9.35.972-2.16,2.242-1.917L56.406,82.7l-1.11-.835-.261-2.233,1.454-1.761-1.082-4.017.179-2.394.582-1.972-.426-7.268L60.7,57.943l3.544-2.774,4.37-6.7.954-4.416Z" transform="translate(-27.739 -22.476)"></path><path id="NG-KN" d="M327.959,83.029l1.609,2.88.046.9.491.514.857-1.655.284-1.192.793-.619,1.83-.885,1.729-.16,3.567.926.206,2.715.518.633,1.747.972.5,1.412-.261.922.468.637.381.193,2.494.257.848.257.422.371.367,1.348-.037,2.572-.541.637-.243.789.757.33v.472l.871-.546,1.44-.115.261.66,0,1.178.628.115.835-.083,1.064-.651.674-.8.573-.243,1.045,3.292.087,1.128-.486.844-.087.94-1.541,2.151-.229.958.092.9,2.32-.069.5.454.229.917.679,1.261,1.3,1.211.958.243.408.527-3.265,3.155-.5,1.706.037,1.027h0l-2.531,1-.523-.041-.523-.491-.775.138-1.137.72-.307.5-2.173,1.912-1.215,1.885-1.256,1.472-.935.234-1.238-.073-.468.2-.734,2.1-.206,1.6.183,3.159.206.912,1.77,1.985.353.766.037.917-.61,1.765-1.188,1.875-.454.257h0l-.481.133-1.376-.293-.734-.481-.908-1.261-3.219-.445-.486-.491-.275-.954.252-.362,1.628-.44.33-.5.092-.793-.55-2.774.463-2.251.463-1.119L336,127.383l-1.646-2.944-2.467-2.031-1.123-.271-1.275.014-.7-.252-1.609-1.894-1.719-.564-1.619-.839-.477-.541-.243-1.178.967-1.843-.147-.573-.518-.376L322.86,114l-1.871.569h-.757l-2.2,1.3-1.917,1.756-1.119.307-1.417-.009h0l-1.651-1.229-.509-1.036-.358-1.655.7-1.224.032-1.013.835-.747,1.72-.472,1.123-.78,1.243-.032.436-.266-1.44-3.577.307-1.862-.958-2.1.394-2.9-.321-5.649.124-1.325,1-1.045,1.949-1.087,3.5-1.091,1.687-.885.358-.39.518-2.013.981-2.114.587-.238Z" transform="translate(-168.238 -44.714)"></path><path id="NG-KO" d="M190.651,323.919l1.009.261,1.27.724,1.614,1.49,1.27,1.981,1.169,3.783,1.7,1.055,1.243,1.233,2.508,3.334,1.247,1.165.747.115.151-.16.284-1.325.569-1.16.087-.119.454.4.211-.041.028-1.362,1.637-.8.514-1.49h0l3.421.069.642-.211h0l-.275,1.21-.711,1.22v.394l.376.775,1,1.22.248,2.829-.536,2.16-.018,2.151-.738.766-.39.972-.078,1.715.316.257,1.953-1.353,4.246-1.866,5.686-1.545,3.242-.321,1.642.312,3.531.261h0l-.147,1.3.248,2.692.862,1.476,1.238,1.2.335.848,0,3.164.261,3.123.569,2.536.582.481,1.518-.147.679.215-.165.83-.564.555-.215.592-.193,1.8-.89,2.673-1.513,1.426-2.953,1.431-.44.66-.156,2.027h-.807l-.619-.481-.376.046-1.545-1.509-.385-.266-.188.229h0l-.509-.743-1.119-.344-1.518.349-.981.963-1.119.417-2.834,3.4-2.742,1.77-2.279,2.471-.569.151-.316-.156-.61-.922-.339-.023-.083-1.046-.417-.115-1.252,2.3h0l-.614.858-.706.394-1.027,1.059-.569,1.889-.028,1.252L206.59,386l-.656.408-1.646-.3-.766.353h0l-.472-2.765-.647-.922L202,381.58l.426-2.531-.587-.986.99-1.628.876-2.21-.028-1.908.743-1.807.142-.88-.069-1.564-.362-.922-.665-.5-.252-.972-.8-.647-.857.188-.669.454-.2-.174-1.719.385-.3-.747.11-.234-.339-.257-.22-.8-.39-.28-.032-.559-.486-.922-1.174-.069-.339.234-1.036.087-.9-1.023-.252.027-.578-.647-.3.032-.715-.963-2.724,1.343-.977-.243-.5-.358-.128-.481.105-.885.44-.848-.124-.367-1,.115-.211-.3.174-.408-.128-.312-.321-.165-.8.17-.353-.293h0l-.105-.358-2.173-1.912-.935-1.238.326-1.9-1.151-.2-2.118.4h0l-3.127-1.1-.848-.775-.587-.014-.605-.44-.605-1.72.037-.715,1.05-1.38.614-.294.128-.628-.257-.321-1.059-.124-1.683.293-1.137.651-.252-.206.014-1.963.5-.193h0l.344-.66-.376-1.105-2.183-1.183-.06-.271-1.11-.83-.032-.307-1.105-1.123-.88-1.7.078-.454.981-1.114,1.05-1.793,1.7-1.853,1.651-1.05.812,1.2,1,.807,3.228,1.38.844.037,1.266.5,1.7-.1.977.316,1.8-.055,2.889.7,1.389-.229.72-1.724.293-2.976,1.059-3.572Z" transform="translate(-89.742 -175.267)"></path><path id="NG-KT" d="M289.145,34.9l4.2.619,2.38.633,1.642.89,1.339,1.146,1.252.335,4.535,4.42,1.509-.4,1.339.174,1.389.711,1.05.8.848.968.477,1.119,1.357.628,2.412.582,5.553,1.8h0l0,.394-.917.4-.266.344-.472,1.206L317.3,52.852l-1.917.8L313.7,53.9l-.683-.321-.294-.715-1.2.692-.912-.238-1.22-.766-.312-.431-.647-2.146-.536-.564-4.228.358-2.462-.454-4.764.633-.211.138.009,1.233-.344,1.559.032,1.765.27.33,1.311.426,2.265.055.381.321.569,1.2h0l-2.123.165-.587.238-.981,2.114-.518,2.013-.358.39-1.687.885-3.5,1.091-1.949,1.087-1,1.045-.124,1.325.321,5.649-.394,2.9.958,2.1-.307,1.862,1.44,3.577-.436.266-1.243.032-1.123.78-1.72.472-.835.747-.032,1.013-.7,1.224.358,1.655.509,1.036,1.651,1.229h0l-.454.5-.385.94-2.577,1.027-.72-.358-.445-.724-.94-.793-3.109-1.05-.637.128-1.4,1.188-.55,1.362,0,.637-.266.248-.642.041-1.27-.5-.894-.05-1.582.5.055.935.83,1.541-.633.876-1.233.7-.8-.105-1.949-1.967-2.912-.885.179-.605,1.325-1.233.105-.491-.362-.8-.624-.413-.89.083-2.022-.4h0l.009-1.068.573-2.8-.413-1.692-.876-.871-.073-.491.206-1.724.715-1.9.3-1.834.688-.385,3.031-.06.587.4,2.238-1.82.252-1.467,1.531.371.867-.743-.229-.894-.532-.656-1.229-1.05-1.16-.532-.578-.555.835-1.664.5-2.366-.436-1.133.06-.77-.316-1.4-1.146-2.384.183-1.637-.6-1.472-.179-2.178-.459-2.371.032-2.774-.454-2.829.66-4.961h0l2.228-.72,2.421-2.458,3.989.358,1.642-.339,10.73-6.488.587-.151Z" transform="translate(-141.003 -18.664)"></path><path id="NG-KW" d="M30.794,235.671l2.467-.422,5.191-.161,1.66.426,6.41,7.272.912,1.421,2.572,2.971,1.05.724.78-.082.477.22.124,1.348-.335,2.132.028,2.467.4,1.687.6.179,3.471-.362.385.339.2.743-.087,1.573.16.642.3.468,1.472,1.105,1.394.179.491.252.413.968.339,2.5.867.605.917,0,4.2-1.632,1.105-.073,2.912,1.38.651.5,2.912,3.315,1.032.316,1.816-.532,2.073.371,1.71.738.293-.124,5.4,3.356,2.38,1.683.426.683.669.326.844.275,2.256.147,1.554-.417,3.448-.142,3.788.784h0l-1.128,1.536-1.059,3.572-.293,2.976-.72,1.724-1.389.229-2.889-.7-1.8.055-.977-.316-1.7.1-1.266-.5-.844-.037-3.228-1.38-1-.807-.812-1.2-1.651,1.05-1.7,1.853-1.05,1.793-.981,1.114-.078.454.88,1.7,1.105,1.123.032.307,1.11.83.06.271,2.183,1.183.376,1.105-.344.66h0l-2.641.041-1.885.614-.376,1.018.133.289-.477.99-.592-.252-.894.266-1.055-.284-1.068.105-.436-.225-.674-.945-.436-.17-2.054.573-.472-.225-.28-.766-.188.078h0l-.179-.248-.766.367-1.6.06-.679-1.454-1-.266-2.173.779-1.215-.174.037.4-.083-.39-.165.041-1.628.738-1.192.142-3.792-.1h0l-.225-.3-.665-.032-.326-.431-.871-2.206-.179-1.27-.358-.3-.014-.367-1.587-1.032-1.353-1.944L49.8,286.06l-.041-.963-.362-1.27-.9-1.206-1.376-3.26-.761-.876-.605-2.426-.371-.725.472-2.063.954-.711.16-.734.261-.271,1.449-.958,1.073-1.449-.073-.6-.6-.358-1.3.825-1.013.037-1.756-.5-.5.06-1.1-.706-2.614-.8-1.49-1.11-.775-.935-.248-1.137L36.4,262.807l-.935.041-1.752.954-.775,1.7-.009,1.215-.206.509L30.7,268.8l-3.045,1.339L25,271.652l-1.142.89-.518.119-1.38,1.013-3.21,1.495-.426.069-.243-.344-.206.05-.417-.518-.316-.087-1.178.124L12.783,277l-.761.3-1.793,1.577-.087.454-.688.362-1.871.33-1.454.009-1.463,1.275h0l.257-.816-.271-.624,0-1.623-.326-.413.11-.66.252-.637-.179-1.243-.445-.821.339-.642.656-.417-.183-1.531.316-.105.156-.789-.092-.284.009-.4.316-.752.2-.715-.188-.349-.124-.353-.16-.358.06-.536.115-.793.073-.316,2.462.083.326-.073.481-.541,1.628-.257.3.376.569.206.683-.046,2.27-.793.115-.807.894-1.779.078-1.715.876-.862-.156-2.669-.587-1.839.142-.651.532-.862,1.133-.633.376-.839,1.188-1.66.39-1.422.477-.27.981.115.958-.793.046-.559-.614-1.174-.147-.885.17-.614.509-.559,3.1-1.238,1.554.11.523-.138.926-.945.055-.6,1.082-1.188.261-1.105.115-2.279.39-.5.954-.394Z" transform="translate(-2.009 -127.168)"></path><path id="NG-LA" d="M3.022,455.835l.573.183,1.564-.2.89.408,1.587-1.119v-.738l.188-.05,1.628.243,6.287-.087.486-.463.353-1.811.954-.757.041-1.078.624-1.151.848.115,1.564.656.55.367.371.656,2.1-.22-.234-.665.729-.486,17.232.179.491.1.248.413-1.252,1.321-.105.431.335.569.018.67,1,.5,1.476-.99,1.582-.188.486.679.055.436-.514.486-1.284.6-.257.472.1.321.422.339,1.27.353.518.6.266.064.514-.266,2.416.3.16.573-.165,1.082h0l-4.37-.527-1-.307L38.251,457l-3.939-.211-4.544.431-6.928.073-.261.142-.087.605L22.248,458l.11.156-2.485-.376-2.76,0-9.9.335-4.352.5-.165-1.426Z" transform="translate(-1.267 -243.112)"></path><path id="NG-NA" d="M284.208,285.725l.615-.468.344.05.275.862.321.362.688-.28.426.064,1.119.821.615-.115.8.486h.5l1.059-.963.431-1.165.757-.972.463-.16.5.179,1.344,1.224.147,1.49,1.935,1.119.472.738-.023,4.448.183.6.614.44.527-.1,1.078-.734,1.908-2.178.408-.871.591-.449.61.1.688.573,1.747.11,2.449,2.71.275.871,1.133.06.738-.193.376-.33,1.518-2.476,1.215-2.572.5-.261h0l.775.757,1.11.05.954.39L316.69,292l.885,1.564.99.449,2.439.257h1.7l1.27-.619.477.257.922,1.013-.362,1.344-1.238,1.839-.967.908-.647.092-.669.481-.711,1.311-.711.624-.147,1.032.293.789.958,1.114.147.569-.138,2.481.66.949L324.2,309.7l1.678.6,3.755-.069,4.475-1.279,4.75,1.985,1.156.949.669,1.229h0L339.5,314.8l-1.256.376-2.068-.436-.151-.188-.7.105-.459-.491-.793-.413h-.853l-.587.394-.61.981-.335,1.311.784.624.931,1.151.16,1.321-.248.3.459,1.229-.05.546-5.149,3.306-.555.637h0l-5.406-4.095,0,.321-1.816.1-2.238-.188-3.146-.711-4.627-1.706-1.229-.2-1.188.083-.633.128-1.811,1.009-.569.647-.468,1.311.037,1.156,2.155,5.337-.041.624-.523.5-2.444-1.022-1.522-1.284-.491.064-2.407-.454-2.256-1.293-3.994-1.628-3.9-.573-4.186-1.137h0l-3.531-.261-1.642-.312-3.242.321-5.686,1.545-4.246,1.866-1.953,1.353-.316-.257.078-1.715.39-.972.738-.766.018-2.151.536-2.16-.248-2.829-1-1.22-.376-.775v-.394l.711-1.22.275-1.211h0l5.1-.8,1.334-.55,2.123-.486,3.191-1.669,1.733-2.118.477-.752.5-1.559.362-.165.7-3.645.908-2.417.252-3.21-.234-1,.037-2.577.968-2.99.243-.28.472-.032.193-.284Z" transform="translate(-143.136 -153.787)"></path><path id="NG-NI" d="M60.692,166.47l.408-.238,1.325.165,5.062,2.788,1.6.651.853.133,5.58-.371,2.838.165,2.063-.39,1.348-.032,2.4.775,3.852,2.614.724-.046,1.325.486.234.339-.092,1.857L89.1,180.276l-2.118,2.031-1.8.66-.679.463-.844.917-.669,1.495-.083,2.9.514,1.105,1.344,1.22-.133,1.807-.472,1.5.009,1.046.651.454,1.981.211.257-.22.229-2.682,3.4-1.146,1.55-.119,1.211-.72.812-.977.128-.7L94.05,188.4l-.853-1.389-.83-.9-.573-1.3.206-.628.018-4.4.413-.344.711-.193,2.293.238,2.394-1.211,1.742-.445.463-.683.032-.949-.536-.624-1.256-.747-.225-.665.289-.674,1-.665.115-.491-.514-3.008-.358-.339L97.8,169l-.481-.922-2.458-.243-2.476-1-1.664-.922-.4-.578-.073-.706.628-.949L93.1,162.49l2.031-.743,3.609-.839,4.521-.729,1.669.018,1.3.326.775.734.449,2.985.371.578,1.72,1.133.22.816-.17,2.206.165,1.843.752.573,4.893-.316,5.548-2.329,1.8-.188.587-1.009,1.568-1.266.848.165.624.5h0l1.522,2.018,1.742,3.045.729,1.875-.032.385h0l-1.394,2.467-.183,2.2.66,1.091.064.679-.339.917.11,1.747-.844.825-.151,1.059.1.628,1.4.917.559,1.614.656.275.647-.408,2.467-3.214L136.657,183l1.128-.688.963-.28,1.334-.06.468.459.477,1.22,3.5-1.311,1.82.257.293-.449-.307-1.1.541-.55,2.169.229.28.234.22.88.128,2.063.637.064,1.032-.307.738.2.908,1.742-.023,1.178-.619,1.9,2.215.761,1.481.8-.142.908-.468.821-1.944,1.192-.39.679-.743.77-1,.624-.417.569.472.908.784.761,3.058,1.142,5.9-.037.628.307.151.463.073,2.32.422,1.779.046,1.417-.289.692-1.481.188-.4.193-.133.293.078.417.518.353,1.66.624-.381,1.385,1.376.743.266.862-1.417,1.454L162,213.36l-.362.4-1.123.591-.257.426-.041,1.064,1.554,1.275-.633,1.894,1.128-.275.564.193h0l-3.966,5.658-.431.11-4.214-3.714-.807-.289-5.058.216-1.229.151-.156.174L146.8,227.5l.344,13.852-.211.628.894,2.251.651.215.839-.1h0l-.514,1.49-1.637.8L147.139,248l-.211.041-.454-.4-.087.119-.569,1.16-.284,1.325-.151.16-.747-.115-1.247-1.165-2.508-3.334-1.243-1.233-1.7-1.055-1.169-3.783-1.27-1.981-1.614-1.49-1.27-.724-1.009-.261h0l-3.788-.784-3.448.142-1.554.417-2.256-.147-.844-.275-.669-.326-.426-.683-2.38-1.683-5.4-3.356-.293.124-1.71-.738-2.073-.371-1.816.532-1.032-.316-2.912-3.315-.651-.5-2.912-1.38-1.105.073-4.2,1.632-.917,0-.867-.605-.339-2.5-.413-.968-.491-.252-1.394-.179L86.246,218.7l-.3-.468-.16-.642.087-1.573-.2-.743-.385-.339-3.471.362-.6-.179-.4-1.687-.028-2.467.335-2.132L81,207.481l-.477-.22-.78.083-1.05-.724-2.572-2.971-.912-1.421-6.41-7.272-1.66-.426-5.191.16-2.467.422h0l.225-1.385-.9-.321-.963-.926-.8-1.623,1.412-3.2-.064-.775.408-.523,1.183-.61,2.788,1.463.459-1.431.115-1.371,1.293-2.948-.3-2.843L63.1,177.75l-1.362-2.568.555-2.109.06-.935-.564-2.316-.977-.376.193-.894-.128-.894.234-.894Z" transform="translate(-30.696 -86.607)"></path><path id="NG-OG" d="M.631,372.952l2.737-1.967,1.6-.1.871.426.569.821.188.656.069,2.971.257,1.082.6,1,.385.06.431-2.549.261-.573.216-.206h.628l.4.28.248.8-.073,1.417-.8,2.742-.188-.11-.234.261.238,1.678.972,1.151,1.4,1.133.468,1.394,1.467,2.068,1.38,1.082,1.073.518,1.857.128.8-.225,1.275-1.82.523-1.944.743-.679,1.192.133.8,1.99.729.518.468-.119.518-.509,1.133-.275,2.843.1.536.867.151,2.6.188.326,1.366.559.293.5-.046,1.018.5,1.238.188,1.316-1.82,1.839-.151.518.17.128,2.792-.115,1.238-.266,1.394.06,1.458-.569.692-.628,2.7-.4h0l1.256-.5.642-.509.431.179.238.385.271,1.963.9,0,1.765-.908,1.554.271,1.362,3.26,1.4-.9.5-.009.527.316.972-.422,1.908-.119.142.06-.138.463h0l-.344,2.522-.486,1.495-1.078.963-.945.445-1.664,1.5L48.2,407.989l.014,1.564.922.9,2.206.371.839-.06.651-.486.757-1.041.807-.234.3.358-.009,2.05.39,1.637-.33.83-1.119.3-.353.523-.514.312-1.1.05-.605.614.449.2,1.279-.115,1.513.8.1.5-.376.789-1.839-.128h0l-2.293-1.027-2.008-.426h0l.165-1.082-.16-.573-2.416-.3-.514.266-.266-.064-.518-.6-1.27-.353-.422-.339-.1-.321.257-.472,1.284-.6.514-.486-.055-.436-.486-.679-1.582.188-1.476.99-1-.5-.018-.669-.335-.569.105-.431,1.252-1.321-.248-.413-.491-.1-17.232-.179-.729.486.234.665-2.1.22-.371-.656-.55-.367-1.564-.656-.848-.115-.624,1.151-.041,1.078-.954.757-.353,1.811-.486.463-6.287.087-1.628-.243-.188.05v.738l-1.587,1.119-.89-.408-1.564.2-.573-.183h0l.193-1.5.518-.541.289-.706-.614-1.715.6-.99.968-.825.092-1.256-.1-.44-.981-.128-.358-.179-.188-.394-.078-.835.55-.871-.156-.491.22-1.587-.1-.449-.6-.064-.248-.28.069-1.311.642-.738,1.4-.816L2.75,396.278l-.22-.44.857-1.009.271-.88-.3-2.137-.7-.761L2.6,386.607l1.087-.037.376-.22.018-.33-.193-1.6-1.229-.935-.1-.807-.449-.7L1.97,380.05l.115-4.108-.138-.436-.376-.16-.445-1.183-.775-1Z" transform="translate(0 -200.699)"></path><path id="NG-ON" d="M146.076,383.672l2.118-.4,1.151.2-.326,1.9.935,1.238,2.173,1.912.105.358h0l-1.123,1.6-.413.275-.715-.064-.647.789-.083.633.183.385.926.376-.4,1.325.353,1.142.193.128-.656,1.623-.986.481-.807.839-.216.477.069.637-1.481,3.159.147.381-.17.39-.692.335-.569.766-.284,2.123.541.587.073.376-.4.234,0,.747-.546-.234-.115.115-.436,2.274-.692,1.554-1.229.472-.371-.165-.546-.679-.614-.055-1.729,1.449-.339.014-.963-2.5.922-1.032-.8-.958-.752-.156-1.509.179-3.045-.05-.77-.165-1.045.174-.972-.179-1.009.463-.211.358-.041.9-.436.312-.362,1.041-.793.367-.206.477-.807.738-.225.44.041,1.018-.367.454v1.3l.564.293.637,1.045.266.665-.165.789-.381.9-.8.784-.39,1.715-1.348.394-.266.284-.44,1.66-.367.321.128-.2-.115.275.2.417.321.023.89.624.757,1.348.715.046.61.477.569,1.036-.179.532h0l-3.164,7.676h0l-2.229-2.724-4.2-4.237-6.8-5.484-1.238-.761h0l1.834.128.381-.793-.1-.491-1.513-.8-1.279.115-.449-.2.605-.619,1.1-.046.509-.312.358-.523,1.119-.3.33-.835-.385-1.637,0-2.05-.293-.358-.812.234-.757,1.041-.651.486-.839.06-2.2-.371-.922-.9-.014-1.564,1.366-2.256,1.664-1.5.945-.44,1.078-.963.491-1.49.339-2.526h0l1.224-.651.986-2.279,1.967-1.577,1.064-.009,1.151.569,1.334,1.018.83.014.293-.578-.105-.747.188-.967-.211-1.825.715-3,.385-.261,2.687-.729-.284-1.1h0l2.086-.665,3.567.2,3.2-.142.711.243.651,1.013.472,1.463-.073.394.5,1.233,1.045.271,2.536-1.6,1.394-2.031.784-1.8.78-3.714.518-.981,1.1-1.137,1-.665.39-.945.853-.174.688.569.376-.137.683-1.119Z" transform="translate(-56.507 -207.402)"></path><path id="NG-OS" d="M99.514,365.189l3.792.1,1.192-.142,1.628-.738.165-.041.083.39-.037-.4,1.215.174,2.173-.78,1,.266.679,1.453,1.6-.06.766-.367.179.248h0l-.7,2.43-.912.752-1,.431-.743.688-.871,1.949-.055.642.371,1.289-.546,1.83.316,2.192,1.307,2.8.385,1.738.381.779h0l.284,1.105-2.687.724-.385.266-.715,3,.211,1.825-.183.968.105.747-.293.578-.83-.014-1.334-1.018-1.151-.569-1.064,0-1.963,1.582-.986,2.274-1.224.656h0l.138-.463-.142-.06-1.908.119-.972.422-.527-.316-.5.009-1.4.9-1.362-3.26-1.554-.271-1.765.908-.9,0-.271-1.962-.238-.385-.431-.179-.642.509-1.256.5h0L87,386.9l.2-2.426.766-4-.4-.225-1.4-2.238-1.426-1.068-.124-.426-.064-.4.527-.5.358-.807.4-4.251.275-.128,1.972.614,1.064-.344.358-.454.06-1.055.486-.261,1.288-1.522,1.38.844,1.646,2.549.977-.426.3-.656.94-.532.449-.637.128.179.839-.692,1.05-.349.115.174.454-.614.142-.587Z" transform="translate(-45.591 -196.833)"></path><path id="NG-OY" d="M2.988,314.041l1.463-1.275,1.454-.009,1.871-.33.688-.362.087-.454,1.793-1.577.761-.3,3.178-2.536,1.178-.124.316.087.417.518.206-.05.243.344.426-.069,3.21-1.495,1.38-1.013.518-.119,1.142-.89,2.655-1.513,3.045-1.339,2.027-1.573.206-.509.009-1.215.775-1.7,1.752-.954.935-.041,1.871,1.128.248,1.137.775.935,1.49,1.11,2.614.8,1.1.706.5-.06,1.756.5,1.013-.037,1.3-.825.6.358.073.6-1.073,1.449-1.449.958-.261.271-.16.734-.954.711-.472,2.063.371.724.605,2.426.761.876,1.376,3.26.9,1.206.362,1.27.041.963.559,1.577,1.353,1.944,1.587,1.032.014.367.358.3.179,1.27.871,2.206.326.431.665.032.225.3h0l.243,1.467-.142.587-.454.614-.115-.174-1.05.348-.839.692-.128-.179-.449.637-.94.532-.3.656-.977.426-1.646-2.549-1.38-.844-1.288,1.522-.486.261-.06,1.055-.358.454-1.064.344-1.972-.614-.275.128-.4,4.251-.358.807-.527.5.064.4.124.426,1.426,1.068,1.4,2.238.4.225-.766,4-.2,2.426-1.073,4.512h0l-2.7.4-.692.628-1.458.569-1.394-.06-1.238.266-2.792.115-.17-.128.151-.518,1.82-1.839L32,352.594l-.5-1.238.046-1.018-.293-.5-1.366-.559-.188-.326-.151-2.6-.536-.867-2.843-.1-1.133.275-.518.509-.468.119-.729-.518-.8-1.99-1.192-.133-.743.679-.523,1.944-1.275,1.82-.8.225-1.857-.128-1.073-.518-1.38-1.082L12.21,344.52l-.468-1.394-1.4-1.133-.972-1.151-.238-1.678.234-.261.188.11.8-2.742.073-1.417-.248-.8-.4-.28H9.147l-.216.206-.261.573L8.239,337.1l-.385-.06-.6-.995L7,334.964l-.069-2.971-.188-.656-.569-.821-.871-.426-1.6.1L.962,332.153h0l.491-.954.335-1.972.61-1.9-.138-.514.17-1.238.518-1.036.165-1.325-1.119-1.4-.536-1.83.037-.926.481-.857-.2-.94.22-.321.573-.138.628-1.321-.2-.2.335-.445,0-.491Z" transform="translate(-0.33 -159.9)"></path><path id="NG-PL" d="M370.972,223.233l.7-.225,1.458.037,1.275.4,1.2,1.908.358,2.2-.018,5.677,5.03-1,.486.1.825.88.445,1.435.119,2.724-.105.537-1.091,2.05-.041.775.275.39,1.8.651.362.326.413.532.757,1.866.715.614.692.243,2.2.124,2.508.679,4.6-.271,2.013-.647,1.325-2.389,2.183-.6.229-.766-.124-.8-1.454-1.862.138-.66,1.389-.816,3.485,1.811,1.178.234,4.246,2.261,5.076,2.173,2.834,1.853,2.916,1.573h0l.715,1.807.1.986-.234,1.871.348,2.733,1.055,1.77.482,2.76-.252.61.138,1.032h.2l.1,2.54-.816,1.412-5.585,2.687-.871-.05-4.365.963-1.142.66-.944,1.921-2.174,2.623-3.26,1.724-3.522,3.508-1.114.546-2.022.463-1.885.248-1.765-.115h0l-.669-1.229-1.156-.949-4.75-1.985-4.475,1.279-3.755.069-1.678-.6L375.7,275.3l-.66-.949.138-2.481-.147-.569-.958-1.114-.294-.789.147-1.032.711-.624.711-1.311.669-.481.647-.092.967-.908,1.238-1.839.362-1.343-.922-1.013-.477-.257-1.27.619h-1.7l-2.439-.257-.99-.449-.885-1.564-.289-2.054-.954-.39-1.11-.05-.775-.757h0l.766-1.807-.055-1.564-.459-.958-.784-.555-1.178-1.412-1.495-2.421-.046-.532.481-.642-.1-2.173.807-.587.183-1.412.876-.711.193-.491-.243-.963.321-3.581-.082-.9.156-.5,1.1-.9-.344-1.614-.624-1.293.1-1.243.977-2.279.871-.642,1-.335.605-.715.252-.656.1-1.33Z" transform="translate(-196.996 -120.627)"></path><path id="NG-RI" d="M252.143,544.392l-.669.637.009.353-.284-.11.1-.651.66-.376Zm-1.44-.844-.789-.449-.252.069-.252.069-.1-.317.394-.362-.142-.307.142-.3-.032-.481-.261-.371-.417-.078-.1.073-.326-.779-.124-.078.064-.211-.394-.394-.124.165-.44.069-.087.376.261.472.229.481.188.935-.22-.106-.206.289.491,1.6-.064.582.536,1.853-.11.1.353.211.945-.2.183-.206.06-.266.8.225.014-1.022.307-.715-.532-.926Zm-1.742-4.7.188.211,1,.041.087-.417-.188-.142-.775.138-.312.17Zm.582-1.128.165.518.238.087-.133-.871Zm3.3,4.466-.66-1.311-.459-.321-.747-.371-.124-.055-.385.3.3.041.6.518.064.1-.105.211.238.427.055.88.592.55.417.078.307-.646Zm2.715,2.806-.954-1.2-.6.747.362.362.371-.11.174.417h.348l.1.284.536-.229.5.5.853-.683-.284-.252-1.4.169Zm-9.129-3.031-.514.243-.128.605.523.183.66.5.472,1.045-.133-1.541-.165-.069.119-.683-.835-.28Zm8.313,1.174-1.087-.743-.711-1.078-.014-.124-.22-.779-.22.2-.183-.165.2-.307-.014-.683-.055-.032-.261.848-1.032-.321-.243-.046-.4-.5-.032-.7-.165-.133-.032-.211-.119-.078-.069-.3.229-.362-.449-.559-.371.243-.156.408.3.706-.945.353-.188.165-.426.174-.238.023-.459.353-.211.284-.041-.692-.266.339-.1.234.458.757.252,1.123-.6.206-.243.1-.633-.738-.326-.871L245,539.124l-.688-.234.257-.711-.312-1.018.449-.371.161-.22-.243-.307-.83-.11-.83-.509-.128.729-.408.261-.151-.353-.582-.064-.156-.156-.293.087-.353.014-.284-.4-.087-.064-.252.188.087.454-.064.151.211.142.582.582-.055.7.449,2.128,1.477,1.518.009.541-.83.669-.046.266.835,3.008.252,1.522,1.105,1.137-.133.151-3.32.316-1.027-.344-.041-1.243-.11-1.164.064-.211-.014-.078-.211-1.243-.087-.344.89-1.683-.087-1.224-.307.069-.312.046-1.816-1.192-.55-2.008-.633-.857-.912-.009-3,1.165-.477-.119-.16-.89.193-.669-1.518-.66-.229-.381.032-1.99.871-1.224.348-.94.014-.582-.591.073-.385-.358.61-2.036,2.059-3.595,1.27.078.252-.229.344-1.142.706-.362-.105-.83.725-.491.436-.678-.014-.89-.289-.706-.348-.266-.88-.38-1.348.225-.477-.128-.261-.477.1-.2,1.614-.83.087-2.43.321-.679.94-.651.408-.8.376-1.458-.5-1.623.105-.16.509.587,1.1.1-1.261,6,.692.2,1.591-.307.972.358.2.761-.238,2.118-.5,1.266.119.628.844.6.789,1.564.99.757.981.188,3.081-.064,2.155.514,1.9-.491.977-.014,2.068.518,1.178-.436.252.023.3.789.027,1.275-1.1,1.921-1.564,1.986-.628,1.7-.073.5.275.509.665.647.825.124,1.435-.271.509-.293,1.279-.055,1.5.559.83-.193,1.348.642,1.078.821.894,1.6.289,1.055-.44,1.958.266,2.086-.234.147-.018.293.28.536-.559.353-.385-.33-.078-.449-.559-.124-.252-.119-.119.211-.637.541-.266-.11-.119-.165-.174-.009-.326.179-.688-1.082-.582.44-.426-.165-.734-.229-.3-.472-.307.087-.339-.394-.284.234-.087.362-.408.151.156.5.124.472.11.275.358.275.353-.11.261.037.394-.142-.078.8-.812.078-.66.243-.339-.55-.046-.151-.481-.537-.069-.431.05-.1Zm9.868,1.976-.316-.179-.2-.014-.4-.165-.009-.009-.183-.165-.193.211-.147-.06.16-.247-.4-.683-.413.243-.477-.413-.165-.156-.078-.234-.637,0-.119.128-.564.4-.61-.023-.211.018-.2-.105-.289-.289-.243-.142-.041-.371-.569.156-.472.009.009-.192-.573-.156-.417-.211-.614-.041-.22.11-.105.266-.009.362h.789l.041.037.536.491.105.307.165.628.385.142.073-.184.156.129.491.014.027.1-.844.339-.2.069-.316,1.1,2.508.353,1.917-.422,2.719-.064-.087-.559.238-.532Zm-22.321-8.286.362-.078.422-.362.037-.513.592.413.734.289-.44.536.2.848.124.147-.014.266-.275.431.1.293.463.142.578.619.949,2-.426.28-.193.385.069.417,1.444.848.275,1.33.4.605-.055.637.22.738.679.518-.514.637-.44.165-.394-.229-.275.188-2.925-.638-.371-1.165.243-.284-.275.009-.624-1.784-.371-.871.046-.945.747-.715-.078-.619-.83-.761-.775-.527-.348-1.862-.133-.266.009-.834-.353-.5.569-.339.4.289h.307l.138.257Z" transform="translate(-124.607 -276.223)"></path><path id="NG-SO" d="M130.967.229l5.906,2.6,9.414,3.324,1.834,1.078,2.128-.683,1.674-.009,3.916,1.889,7.282,7.135,2.742,4.778h0l-1.389,1.192-3.256,1.834-4.361-.587-.871-.3-.779-.94-1.041-.312-2.279-.087-.271,2.513-.335.867-.229.1-1.238-.66h-1.279l-2.224.715-.968.835-.05.321.358,2.357.032,3.87-.619.459-1.852.752-4.595.362-2.792.436L133.15,38l-.862.857-1.408.876.027,1.321.656,2.128.3,1.949-.339,1.389-1.128.78-2.8.243-.587-.133-2.2.293-1.211-.142-2.05.151-4.278-.766-.422.275-.426,2.068.046,8.35-.3,6.319h0l-.743.445-.431-.032-.353-.8-.935.33-.867-.394-.775.055-5.5,2.5-1.1,1.376-.784.619-1.275-.133-.349-.234-1.169-1.674.532-2.187,1.2-2.582.972-4.489-.362-5.984.064-4.558.463-1.733.587-.679,1.811-.541,1.229-.009,1.454.935.468-.018.293-.715.11-3.677-.77-2.531-.018-.935.6-2.779.083-1.522-.825-1.963-.853-.986.193-1.7L109.75,26l-.041-1.1.743-1.8-.183-.573-.5-.4-.532.142L108.1,23.953l-.289.257-.835.2-1.4-.312-1.353-.949-4.384-1.431-.486-.5-1.463-.835-.757-.972-.348-.142-2.123.724-.853-.339-3.036.064h0l.041-7.538,1.9-.009L100.3,5.479l11.518-2.3,1.105.981,2.618.22,2.958-.33,2.224.257,2.444-.073,2.407-2.87" transform="translate(-48.959 0)"></path><path id="NG-TA" d="M440.234,272.24l2.1-1.215,2.682.358,4.856-2.224,2.953.5,1.83.014h0L456.3,270l2.705-.275,5.713.009,2.921-.216h0l2.5,4.668.669.88,2.132.5.954.592,2.412,4.5-.211,1,.156,1.761,1.22,1.348,1.9.674.926,1.761.119.83-.459,1.66-2.747,5.246.174,2.65-.2.954-2.806,2.394-3.957,5.282-2.329,2.513-1.742,1.477-1.9,2.192-.376.724,1.156,3.086,1.334,2.155,1.243,1.123,1.247-.912,1.3-1.839.752-.174.651.2.7.514,1.146,1.444,1.981,1.761.986,1.192.477.926-.266,2.517.339.793.174,1.623.89,2.118-.023.715.559.4h0l-2.265,2.513-.5.89-.408,1.339.174,2.715.422,1.522.61.972-.083.592-.449.335-1.852-.161-.312.211-.945.027-.083.752-.789.344-.706.885-.876.2-.5,1.93-.972.3-.628,1.247.028.229.431-.023.211.2.041.812.4.05.087.408-.454.2-.284.527.431.7-.037.477-.88.509-.1,1.476-.67.66-.261.876-.83.358-.812-.381-.275.248-.569.069-.211.293.211.4-.083.793-.2.229-1.719.312-.193.1-.092.628-.628-.083-1.389-.931-1.032.463-.307-.321-1.38-.3-.651-.559-.266.023-.559.647-.931-.037.11-4-.931-.99-1.027-.05-1.082.981-1.3-.22-.853-.39-.656-1.55-.541-1-.559-.371-.536-.032-.6-.967-.055-.335.761-2.2-1.22-.844-.683-.092-.275.339-.775-.986-.472-.037-.688-.738-.353-.032-.165-.7-.573-.289-.183.211-.674-.165-.848-.724.238-.885-.183-.958-.757-.6-.348,2.183.037,1.325-.637,2.76-.4.459-.766.261-.156.4-.293.05-.431-.445-7.194.7-1.211-1.412.284-.8-.39-.945-.087-.541.032-.371-.408-.147-3.76,3.393-.293.514-1.119.789-.514.844-2.118,2.123-.615-.33-1.009-.046-.734-.1-.367-.28-.413.977.138.362-.349.445-.174.825.165.931-.128.491-.275.17-.468,1.293-.619,2.462-.229.179-.312-.156-.605.17-.472-.605-.2.211h0l.871-3.755.014-4.017.151-.5-.28-.335.967-5.273,1.518-2.825,1.577-1.49,1.417-.89.422-.656-.133-2.715,1.091-2.7.271-1.481-.257-.816L422,329l-.537-.624.064-.3-3.838-3.471-2.036-2.591-2.357-2.247-3.43-.812-3.751-.22-3.425.436-2.806,1.206-.871-.261,1.738-2.737h0l.555-.637,5.149-3.306.05-.546-.458-1.229.248-.3-.16-1.321-.931-1.151-.784-.624.335-1.311.61-.981.587-.394h.853l.793.413.459.491.7-.105.151.188,2.068.436,1.256-.376,1.183-1.687h0l1.765.115,1.885-.248,2.022-.463,1.114-.546,3.522-3.508,3.26-1.724,2.173-2.623.945-1.921,1.142-.66,4.365-.963.871.05,5.585-2.687.816-1.412-.1-2.54h-.2l-.138-1.032.252-.61-.481-2.76-1.055-1.77-.349-2.733.234-1.871-.1-.986Z" transform="translate(-215.86 -145.616)"></path><path id="NG-YO" d="M476.434,32.449l5.709.087,4.384.55L491.46,35l5.36,1.169,1.252.692,2.793,2.371,2.192,1.376.724.064.138-.376.458-.128.757.3.284-.238-.252-.541.683.073.78.431L507.39,40l.38.326.289.491.477-.284,1.307.28.339.229.426.055.454,0h0l-.037,1.93-.683,3.677.564,1.765.665.835,2.2,1.761.22,1.715-.844,1.93-1.087,1.412-3.237,2.893-.252,1.009.789,1.756-.023,2.655-1.165,7.47-.06,1.6.775,3.412-2.164,4.191.069.89.293.165,2.251-.1,1.435,1.719.385,1.527-.454.968-2.082,2.031-1.513,2.705-1.325,1.536-.413,1.311.018,1.362.349,1.9-.11,1.348-.958,1.412-2.8,1.674-5.14,1.385-1.22.88-.789,1.3-.28,1.27.128,3.847-1.564,2.077-1.394.316h0l-3.109,0-.138-.234-.353-2.958.55-5.434-.307-2.233-1.687-1.55-.725.468L486.3,100l-1.568-1.642-2.178-2.935-3.893-2.87-1-.592-1.366-.463-1.853-.078-1.912.692-.417.4h0l-1.394-.17-.747-.7.454-3.109.481-1.247.105-2.256-3.829-9.588-.092-1.775-.436-1.243-.151-1.238-.1-3.091-1.449-2.137.087-.83-.353-3.246-.523-1.344L460.624,57.7h0l-.4-1.33-.807-5.287L458.4,49.525l-.848-.4-.931.28-2.288-1.018-2.687.853-.514.33-.669-1.16-.316-1.995-.977-2.192-1.013-.573-2.9.9-1.293.628-1.449.289-2.439,1.188-.963,1.83-1.44.825-2.751-.335-.821-.541h0l3.384-3.439,1.49-2.109,1.871-1.609,2.38-2.682,1.825-1.165,4.15-1.862,7.364-.431,5.755-2.155,8.978-.491Z" transform="translate(-234.86 -17.446)"></path><path id="NG-ZA" d="M197.7,46.928l2.5,2.99,2.329-.05,1.531-.28h0l-.66,4.961.454,2.829-.032,2.774.458,2.371.179,2.178.6,1.472-.183,1.637,1.146,2.384.316,1.4-.06.77.436,1.133-.5,2.366-.835,1.664.578.555,1.16.532,1.229,1.05.532.656.229.894-.867.743-1.531-.371-.252,1.467-2.238,1.82-.587-.4-3.031.06-.688.385-.3,1.834-.715,1.9-.206,1.724.073.491.876.871.413,1.692-.573,2.8-.009,1.068h0l-.463-.014-1.073,1.091-1.261.812-.39.523-.784,1.564-.293,1.628-.692,1.481-1.394,1.421-1.068.692-2.16.284-3.641-.261-2.586.436-2.416,2.16-1.311,1.908-.587.348-.77.055h0l.032-.385-.729-1.875-1.742-3.045-1.522-2.018h0l-.1-2.513L173.9,98.11l-.885-1.38-2.467-1.243v-.55l.94-2.976,0-1.133-.647-.986-1.995-.812-2.224-.284-.559.371-1.142.271-1.738-.229-2.508.348L159,88.4l-1.316-.05-.775-1.513-.5-.261-1.655.3-.958-.142-.417-.293-.362.069-.486.284-.376,1.064-2.907.669-1.885-1.032h-.835l-.394.22h0l.3-6.319-.046-8.35.426-2.068.422-.275,4.278.766,2.05-.151,1.211.142,2.2-.293.587.133,2.8-.243,1.128-.78.339-1.389-.3-1.949-.656-2.128-.027-1.321,1.408-.876.862-.857,2.673-3.934,2.792-.436,4.595-.362,1.852-.752.619-.459-.032-3.87-.358-2.357.05-.321.967-.835,2.224-.715h1.279l1.238.66.229-.1.335-.867.271-2.513,2.279.087,1.041.312.78.94.871.3,4.361.587,3.256-1.834,1.389-1.192h0Z" transform="translate(-78.94 -23.754)"></path></g></svg>