<svg xmlns="http://www.w3.org/2000/svg" width="338.5" height="338.5" viewBox="0 0 338.5 338.5"><path id="_9073954_globe_africa_icon" data-name="9073954_globe_africa_icon" d="M0,169.25A169.25,169.25,0,1,1,169.25,338.5,169.25,169.25,0,0,1,0,169.25Zm22.567,0A146.718,146.718,0,0,1,147.286,24.2l10.681,5.34v8.62l-16.329,8.165a11.283,11.283,0,0,0-1.213,19.48l33.85,22.567a11.283,11.283,0,0,0,6.259,1.9h11.283A11.283,11.283,0,0,0,203.1,78.984V67.7h11.283V78.984a11.283,11.283,0,0,0,3.3,7.978l7.978,7.979V108.16l-4.674,4.674H205.764L163.013,91.458a11.282,11.282,0,0,0-10.092,0L132.737,101.55H101.55A11.283,11.283,0,0,0,90.6,110.1L79.32,155.23a11.283,11.283,0,0,0,2.968,10.715l33.85,33.85a11.284,11.284,0,0,0,2.932,2.114l16.329,8.165V236.95a11.287,11.287,0,0,0,3.3,7.98l7.978,7.977V270.8a11.281,11.281,0,0,0,1.191,5.046l11.283,22.567a11.283,11.283,0,0,0,10.092,6.237h22.567a11.283,11.283,0,0,0,9.388-5.023l22.567-33.85a11.274,11.274,0,0,0,.7-1.214L235.758,242a11.287,11.287,0,0,0,1.192-5.046V218.145l31.593-42.125a11.285,11.285,0,0,0,1.065-11.816l-3.119-6.237h15.594a11.283,11.283,0,0,0,11.283-11.283V135.4h18.642A146.7,146.7,0,1,1,22.567,169.25Z" fill-rule="evenodd"></path></svg>